<?xml version="1.0" encoding="iso-8859-1"?>
<!-- Generator: Adobe Illustrator 19.0.0, SVG Export Plug-In . SVG Version: 6.00 Build 0)  -->
<svg version="1.1" id="Capa_1" xmlns="http://www.w3.org/2000/svg" xmlns:xlink="http://www.w3.org/1999/xlink" x="0px" y="0px"
	 viewBox="0 0 512.231 512.231" style="enable-background:new 0 0 512.231 512.231;" xml:space="preserve">
<g transform="translate(0 -1)">
	<g>
		<g>
			<circle cx="251.948" cy="73.692" r="21.333"/>
			<path d="M511.647,244.29c-2.098-12.212-12.641-21.168-25.032-21.264c-12.39,0.096-22.933,9.052-25.032,21.264
				c-2.098,12.212,4.851,24.173,16.498,28.4v35.669c0,4.713-3.82,8.533-8.533,8.533H307.415v-34.133h42.667
				c14.138,0,25.6-11.462,25.6-25.6V247.09c11.755-4.156,18.806-16.176,16.698-28.465s-12.763-21.271-25.231-21.271
				s-23.123,8.982-25.231,21.271s4.943,24.309,16.698,28.465v10.069c0,4.713-3.82,8.533-8.533,8.533h-42.667v-48.384
				c46.922-25.729,69.962-80.371,55.627-131.929C348.708,33.822,300.77-1.086,247.301,1.097
				C193.832,3.28,148.9,41.981,138.816,94.535c-10.083,52.555,17.335,105.137,66.198,126.954v61.269
				c0.017,2.262,0.903,4.432,2.475,6.059l19.627,19.541l-17.152,17.067H94.082c-4.713,0-8.533-3.82-8.533-8.533V247.09
				c11.755-4.156,18.806-16.176,16.698-28.465c-2.108-12.289-12.763-21.271-25.231-21.271s-23.123,8.982-25.231,21.271
				s4.943,24.309,16.698,28.465v69.803c0,14.138,11.461,25.6,25.6,25.6h115.883l17.152,17.067l-17.152,17.067H42.882
				c-14.138,0-25.6,11.462-25.6,25.6v35.669C5.526,442.051-1.525,454.071,0.583,466.36c2.108,12.289,12.763,21.271,25.231,21.271
				c12.468,0,23.123-8.982,25.231-21.271c2.108-12.289-4.943-24.309-16.698-28.465v-35.669c0-4.713,3.82-8.533,8.533-8.533h167.083
				l17.152,17.067l-17.152,17.067h-47.616c-14.138,0-25.6,11.462-25.6,25.6v10.069c-11.755,4.156-18.806,16.176-16.698,28.465
				c2.108,12.289,12.763,21.271,25.231,21.271c12.468,0,23.123-8.982,25.231-21.271c2.108-12.289-4.943-24.309-16.698-28.465
				v-10.069c0-4.713,3.82-8.533,8.533-8.533h42.667v7.936c-0.031,6.036,2.052,11.893,5.888,16.555l27.904,34.304
				c4.275,5.333,10.52,8.717,17.323,9.387c0.853,0.085,1.707,0.085,2.56,0.085c5.834-0.011,11.479-2.064,15.957-5.803l23.296-18.944
				c5.988-5.013,9.454-12.415,9.472-20.224v-83.029h110.933c4.713,0,8.533,3.821,8.533,8.533v69.803
				c-11.755,4.156-18.806,16.176-16.698,28.465s12.763,21.271,25.231,21.271s23.123-8.982,25.231-21.271
				c2.108-12.289-4.943-24.309-16.698-28.465v-69.803c0-14.138-11.461-25.6-25.6-25.6H307.415v-34.133h162.133
				c14.138,0,25.6-11.461,25.6-25.6V272.69C506.796,268.463,513.745,256.502,511.647,244.29z M367.148,214.492
				c4.713,0,8.533,3.82,8.533,8.533s-3.82,8.533-8.533,8.533s-8.533-3.82-8.533-8.533S362.435,214.492,367.148,214.492z
				 M77.015,231.559c-4.713,0-8.533-3.82-8.533-8.533s3.82-8.533,8.533-8.533s8.533,3.82,8.533,8.533S81.728,231.559,77.015,231.559
				z M25.815,470.492c-4.713,0-8.533-3.82-8.533-8.533s3.82-8.533,8.533-8.533s8.533,3.821,8.533,8.533
				S30.528,470.492,25.815,470.492z M145.281,496.092c-4.713,0-8.533-3.82-8.533-8.533s3.82-8.533,8.533-8.533
				s8.533,3.82,8.533,8.533S149.994,496.092,145.281,496.092z M273.282,453.426c0,4.713-3.821,8.533-8.533,8.533
				s-8.533-3.821-8.533-8.533v-17.067c0-4.713,3.82-8.533,8.533-8.533s8.533,3.82,8.533,8.533V453.426z M273.282,393.692
				c0,4.713-3.821,8.533-8.533,8.533s-8.533-3.821-8.533-8.533v-17.067c0-4.713,3.82-8.533,8.533-8.533s8.533,3.82,8.533,8.533
				V393.692z M273.282,342.492c0,4.713-3.821,8.533-8.533,8.533s-8.533-3.82-8.533-8.533v-17.067c0-4.713,3.82-8.533,8.533-8.533
				s8.533,3.82,8.533,8.533V342.492z M273.282,282.759c0,4.713-3.821,8.533-8.533,8.533s-8.533-3.82-8.533-8.533v-25.6
				c0-4.713,3.82-8.533,8.533-8.533s8.533,3.82,8.533,8.533V282.759z M251.948,112.092c-21.208,0-38.4-17.192-38.4-38.4
				c0-21.208,17.192-38.4,38.4-38.4c21.208,0,38.4,17.192,38.4,38.4C290.315,94.886,273.142,112.06,251.948,112.092z
				 M435.415,479.026c4.713,0,8.533,3.82,8.533,8.533s-3.82,8.533-8.533,8.533s-8.533-3.82-8.533-8.533
				S430.702,479.026,435.415,479.026z M486.615,257.159c-4.713,0-8.533-3.821-8.533-8.533s3.82-8.533,8.533-8.533
				s8.533,3.82,8.533,8.533S491.328,257.159,486.615,257.159z"/>
		</g>
	</g>
</g>
<g>
</g>
<g>
</g>
<g>
</g>
<g>
</g>
<g>
</g>
<g>
</g>
<g>
</g>
<g>
</g>
<g>
</g>
<g>
</g>
<g>
</g>
<g>
</g>
<g>
</g>
<g>
</g>
<g>
</g>
</svg>
